HIERARCHY
ROOT hip
{
	OFFSET 0.000000 0.000000 0.000000 
	CHANNELS 6 Xposition Yposition Zposition Xrotation Zrotation Yrotation
	JOINT abdomen
	{
		OFFSET 0.000000 3.402643 0.000000 
		CHANNELS 3 Xrotation Zrotation Yrotation
		JOINT chest
		{
			OFFSET 0.000000 8.438565 -0.680529 
			CHANNELS 3 Xrotation Zrotation Yrotation
			JOINT neck
			{
				OFFSET 0.000000 10.207942 -0.272212 
				CHANNELS 3 Xrotation Zrotation Yrotation
				JOINT head
				{
					OFFSET 0.000000 3.130431 0.000000 
					CHANNELS 3 Xrotation Zrotation Yrotation
					End Site
					{
						OFFSET 0.000000 3.130435 0.000000 
					}
				}
			}
			JOINT lCollar
			{
				OFFSET 3.470700 6.669187 -0.816635 
				CHANNELS 3 Yrotation Zrotation Xrotation
				JOINT lShldr
				{
					OFFSET 3.198488 0.000000 0.000000 
					CHANNELS 3 Zrotation Yrotation Xrotation
					JOINT lForeArm
					{
						OFFSET 10.139888 0.000000 0.000000 
						CHANNELS 3 Yrotation Zrotation Xrotation
						JOINT lHand
						{
							OFFSET 8.370511 0.000000 0.000000 
							CHANNELS 3 Zrotation Yrotation Xrotation
							End Site
							{
								OFFSET 4.083176 0.000000 0.000000 
							}
						}
					}
				}
			}
			JOINT rCollar
			{
				OFFSET -3.470700 6.669187 -0.816635 
				CHANNELS 3 Yrotation Zrotation Xrotation
				JOINT rShldr
				{
					OFFSET -3.198488 0.000000 0.000000 
					CHANNELS 3 Zrotation Yrotation Xrotation
					JOINT rForeArm
					{
						OFFSET -10.139888 0.000000 0.000000 
						CHANNELS 3 Yrotation Zrotation Xrotation
						JOINT rHand
						{
							OFFSET -8.370511 0.000000 0.000000 
							CHANNELS 3 Zrotation Yrotation Xrotation
							End Site
							{
								OFFSET -4.083176 0.000000 0.000000 
							}
						}
					}
				}
			}
		}
	}
	JOINT lThigh
	{
		OFFSET 5.308129 -1.633274 1.361059 
		CHANNELS 3 Xrotation Zrotation Yrotation
		JOINT lShin
		{
			OFFSET -2.041588 -20.007561 0.000000 
			CHANNELS 3 Xrotation Zrotation Yrotation
			JOINT lFoot
			{
				OFFSET 0.000000 -19.190928 -1.224953 
				CHANNELS 3 Xrotation Yrotation Zrotation
				End Site
				{
					OFFSET 0.000000 -2.449906 4.627600 
				}
			}
		}
	}
	JOINT rThigh
	{
		OFFSET -5.308129 -1.633274 1.361059 
		CHANNELS 3 Xrotation Zrotation Yrotation
		JOINT rShin
		{
			OFFSET 2.041588 -20.007561 0.000000 
			CHANNELS 3 Xrotation Zrotation Yrotation
			JOINT rFoot
			{
				OFFSET 0.000000 -19.190928 -1.224953 
				CHANNELS 3 Xrotation Yrotation Zrotation
				End Site
				{
					OFFSET 0.000000 -2.449906 4.627600 
				}
			}
		}
	}
}
MOTION
Frames: 16
Frame Time: 0.033333
5.623696 37.876911 -17.454840 -8.705107 2.912753 -44.662754 0.000000 0.000000 0.000000 33.464798 -2.017456 6.683779 -2.835835 0.966154 2.090205 6.371460 -10.119744 4.909598 -3.521967 9.154817 6.304141 -9.837929 -52.544609 -45.009670 -23.802176 4.997119 22.705420 33.494709 22.472635 -6.050188 3.089181 -14.089146 8.026228 -40.622730 74.271446 -44.988094 35.980816 -5.010273 45.001499 -20.340206 -16.311554 -8.297271 -37.024876 27.522453 11.403551 59.519169 1.664846 -24.964535 -2.877857 0.424480 -3.749434 -27.499557 -43.757038 -16.600451 68.357964 -10.009086 19.932957 -26.264263 1.243484 -4.881907 
5.573470 37.991127 -18.145903 -8.154458 3.806132 -45.882114 0.000000 0.000000 0.000000 32.297993 -2.400040 5.737191 -3.955492 -0.604739 2.812653 4.847585 -8.371079 4.658258 -3.521967 9.154817 6.304141 -13.192844 -49.240604 -45.009613 -25.234051 4.994587 21.646301 33.428127 22.318451 -6.088721 3.089181 -14.089146 8.026228 -50.703773 74.076981 -45.011913 33.135319 -5.010153 45.001278 -19.694727 -16.409908 -8.317996 -37.714275 28.759113 12.793457 60.744621 0.568554 -24.984404 -3.293483 0.412865 -3.483303 -30.575455 -42.761639 -15.257799 68.913086 -10.027423 19.579809 -26.345312 1.263485 -4.811833 
5.589839 37.914711 -18.707443 -7.707402 3.347228 -46.793285 0.000000 0.000000 0.000000 33.042374 -3.017914 4.527540 -3.076621 -1.052441 3.740859 1.391286 -7.108300 5.313757 -3.521967 9.154817 6.304141 -11.076242 -46.259796 -45.006454 -24.926451 4.996522 20.801924 33.608887 21.724333 -6.221266 3.089181 -14.089146 8.026228 -63.075745 71.631447 -45.002213 27.306490 -5.009929 45.002487 -19.383253 -17.186390 -8.250495 -37.596867 30.028278 14.505821 64.274033 0.199014 -24.991333 -5.549442 0.376909 -2.070191 -31.805937 -41.570007 -14.948894 69.508797 -10.008298 19.909954 -26.607359 1.253719 -4.854085 
5.677396 37.683651 -19.159979 -7.606625 2.200881 -47.751247 0.000000 0.000000 0.000000 35.881142 -3.971522 4.610184 -4.723923 1.238201 3.282171 1.248725 -8.340627 6.178699 -3.521967 9.154817 6.304141 -4.839851 -45.511753 -45.013149 -22.929594 4.998314 21.974249 33.397797 21.855742 -6.210486 3.089181 -14.089146 8.026228 -60.980850 66.739769 -45.009357 26.804440 -5.011946 44.996399 -19.088270 -16.416515 -8.349312 -36.230061 30.643921 15.663379 66.221947 0.128994 -24.972908 -8.964030 0.169930 -0.102865 -32.410351 -40.425556 -14.637488 70.346581 -10.006989 20.667982 -27.062860 1.353282 -4.984355 
5.829702 37.364361 -19.556950 -6.908260 1.545857 -48.109070 0.000000 0.000000 0.000000 37.859688 -4.500792 3.996591 -5.710550 2.330402 3.176759 0.398839 -9.163845 6.845346 -3.521967 9.154817 6.304141 0.693789 -43.953297 -45.012089 -22.402536 4.996166 22.586626 33.122078 21.860188 -6.241098 3.089181 -14.089146 8.026228 -60.516823 62.593498 -44.987083 26.974247 -5.007706 45.000900 -18.940855 -16.805828 -8.301150 -36.520924 30.943758 14.882313 66.007874 0.412507 -24.971392 -12.249978 -0.021962 1.436911 -33.365314 -39.338181 -14.386648 71.323563 -10.026564 20.729879 -27.607580 1.399147 -5.059225 
5.943995 37.151363 -19.972416 -5.792299 1.611330 -47.681091 0.000000 0.000000 0.000000 38.334393 -5.062697 2.715200 -6.529315 3.256772 3.159738 -0.945331 -9.432772 7.453594 -3.521967 9.154817 6.304141 5.612618 -43.056881 -45.001373 -22.294928 4.991103 23.009846 33.609215 21.767202 -6.212844 3.089181 -14.089146 8.026228 -59.089218 60.424286 -45.002930 28.051285 -5.008475 45.002831 -18.628593 -16.014498 -8.403848 -39.547302 31.196991 13.120219 66.889931 1.408781 -24.978966 -10.941517 0.086597 0.671296 -34.508667 -38.422028 -14.287088 72.157158 -10.009262 20.110716 -28.105299 1.391498 -5.067467 
5.924359 37.106720 -19.963692 -6.166528 1.751684 -47.617092 0.000000 0.000000 0.000000 38.167324 -6.452514 1.620872 -6.986262 4.074964 3.377962 -1.897724 -8.956429 7.998047 -3.521967 9.154817 6.304141 7.999238 -44.110371 -45.004601 -22.374313 5.001564 23.505119 33.719303 21.867582 -6.176952 3.089181 -14.089146 8.026228 -56.501949 61.339012 -44.985947 29.983055 -5.007506 45.003231 -18.512836 -16.099310 -8.397421 -39.197140 30.817802 13.214627 66.714523 1.135543 -24.991152 -11.224255 0.085473 0.715016 -34.605114 -38.722500 -14.019158 72.408859 -10.008045 19.994169 -28.243689 1.378620 -5.019375 
5.800020 37.198666 -19.762211 -6.695358 0.941644 -47.606033 0.000000 0.000000 0.000000 37.700409 -6.851970 1.838756 -6.514669 4.376905 3.437848 -3.044669 -8.728931 8.229603 -3.521967 9.154817 6.304141 8.141277 -46.852680 -45.009758 -22.530897 4.995600 23.578331 33.842964 21.988579 -6.142494 3.089181 -14.089146 8.026228 -53.089413 63.666714 -45.000961 31.646036 -5.012486 45.004601 -18.856485 -16.443039 -8.351317 -37.763264 31.239666 13.818087 66.601746 1.036125 -24.980743 -11.000469 0.075789 0.666149 -33.074947 -38.532578 -14.277686 72.118042 -10.028546 19.736593 -28.029676 1.388672 -4.999648 
5.653347 37.410606 -19.369732 -7.112159 -0.080559 -46.572330 0.000000 0.000000 0.000000 36.556999 -5.435756 2.118387 -6.367885 4.112710 3.661836 -3.739616 -8.514409 8.313581 -3.521967 9.154817 6.304141 5.121444 -50.678841 -45.005447 -22.652733 4.996323 23.589699 34.014000 21.396557 -6.265690 3.089181 -14.089146 8.026228 -48.157150 66.579987 -44.996258 33.469883 -5.007913 44.998528 -18.612329 -16.378315 -8.370624 -36.548042 30.814133 13.690340 66.456451 1.495620 -24.988159 -10.990225 0.062249 0.724478 -30.057047 -38.580364 -15.560699 71.255157 -10.026737 19.182848 -27.573065 1.336647 -4.917901 
5.495993 37.801964 -18.800880 -7.645816 -0.625239 -45.902061 0.000000 0.000000 0.000000 34.892361 -3.960027 2.829010 -7.504805 3.634062 3.924223 -3.308687 -8.582262 8.305368 -3.521967 9.154817 6.304141 -0.924865 -54.172249 -45.008526 -23.094803 4.997322 24.814074 33.073383 21.396698 -6.349298 3.089181 -14.089146 8.026228 -37.830471 68.949196 -45.005539 37.416378 -5.005566 45.000786 -18.607683 -16.213007 -8.382921 -34.745232 29.842588 13.752679 65.771484 1.533306 -24.965424 -11.388312 0.071710 0.871527 -27.030386 -38.649624 -16.526278 69.454559 -10.024744 18.519579 -27.206234 1.237672 -4.765333 
5.330869 38.322414 -18.169268 -8.111727 -0.983144 -46.034241 0.000000 0.000000 0.000000 32.814926 -3.456952 4.323847 -8.691327 3.780553 3.846912 -2.981598 -8.716897 8.338718 -3.521967 9.154817 6.304141 -8.523701 -56.616489 -45.012207 -24.958704 4.991626 26.199852 32.908020 21.072981 -6.456924 3.089181 -14.089146 8.026228 -21.190168 70.070335 -45.004078 42.087410 -5.005752 44.998920 -18.734606 -16.642031 -8.341333 -32.484646 28.976469 14.091911 64.789452 1.389211 -24.978880 -11.457154 0.078732 0.831853 -24.540016 -38.364895 -16.834343 67.151413 -10.006263 18.373785 -26.381746 1.199949 -4.591107 
5.166609 38.897491 -17.513391 -8.438988 -1.688165 -45.826416 0.000000 0.000000 0.000000 30.939476 -3.061448 5.613090 -10.121925 4.629728 3.566721 -2.457318 -9.146386 8.575674 -3.521967 9.154817 6.304141 -16.534861 -57.343346 -44.993282 -28.805933 5.001132 26.533442 33.013897 20.451433 -6.584976 3.089181 -14.089146 8.026228 -3.431175 69.039703 -45.033714 46.083084 -3.979875 45.002235 -18.649101 -16.908344 -8.319784 -30.230192 27.962601 13.993065 63.564583 1.485997 -24.963228 -11.768318 0.085244 0.912332 -21.121962 -37.972515 -18.029131 64.262627 -10.026258 18.059538 -25.458160 1.096518 -4.426033 
5.007707 39.495861 -16.873344 -8.403438 -2.066742 -45.536190 0.000000 0.000000 0.000000 28.936489 -2.622610 5.933568 -11.308694 4.843475 3.694861 -1.983101 -9.103283 8.763468 -3.521967 9.154817 6.304141 -24.140835 -54.236588 -45.001984 -35.677559 4.998664 29.229092 30.105797 20.904177 -6.710823 3.089181 -14.089146 8.026228 9.000846 67.057411 -45.017563 49.199879 -2.699346 45.000191 -18.051531 -16.514492 -8.374823 -28.228207 27.522606 14.551365 62.081524 1.163607 -24.982979 -11.982802 0.032351 1.027918 -17.958746 -37.661823 -19.532625 61.144379 -10.024345 18.054590 -24.380026 1.014768 -4.211090 
4.808290 40.129417 -16.246849 -8.124885 -2.833656 -45.413303 0.000000 0.000000 0.000000 27.648670 -2.127080 5.970645 -12.735548 5.155438 3.677110 -0.653622 -9.063966 8.790851 -3.521967 9.154817 6.304141 -28.247601 -50.040802 -44.999870 -41.524780 4.998627 31.261581 27.918671 21.936880 -6.693344 3.089181 -14.089146 8.026228 16.382143 64.904831 -45.010174 51.849564 -1.714349 44.995968 -17.493963 -16.012369 -8.442686 -25.915159 27.709784 15.365433 60.381760 0.880518 -24.991573 -12.339504 0.027682 1.288308 -14.463277 -36.825855 -21.135546 57.534214 -10.024759 18.309307 -22.910501 0.913319 -3.995053 
4.603780 40.701897 -15.636609 -7.789349 -3.860353 -45.287823 0.000000 0.000000 0.000000 26.652802 -1.397812 6.280994 -13.260694 5.516735 3.562279 0.044831 -9.063251 8.821311 -3.521967 9.154817 6.304141 -29.531675 -48.292068 -45.003136 -42.509689 4.995521 31.498390 26.668633 21.957592 -6.814644 3.089181 -14.089146 8.026228 19.893259 63.146839 -45.005428 53.548920 -1.259602 45.000557 -17.744936 -16.559246 -8.387501 -23.619852 28.264570 16.401133 58.875725 0.635611 -24.995546 -12.678603 -0.062901 1.559750 -10.919015 -35.783188 -22.770229 54.000038 -9.478424 18.843346 -21.255613 0.827330 -3.768021 
4.590307 41.186413 -15.101216 -7.044702 -3.791990 -45.381119 0.000000 0.000000 0.000000 24.950886 -1.251188 6.691049 -14.229146 5.625608 3.277584 1.198794 -9.089143 8.545212 -3.521967 9.154817 6.304141 -28.214842 -49.552315 -45.005043 -38.418236 4.991031 29.092402 29.576666 19.918924 -6.951090 3.089181 -14.089146 8.026228 19.929132 62.065029 -45.004688 53.994846 -1.173275 45.003300 -17.707712 -16.792736 -8.361217 -22.753864 28.066126 16.700315 57.638088 0.227030 -24.981974 -12.979431 -0.061204 1.649433 -9.121783 -35.339375 -23.863159 50.693489 -8.645140 19.385075 -19.697819 0.720562 -3.531440 
